<?xml version="1.0" encoding="UTF-8" standalone="no"?>
<!-- Created with Inkscape (http://www.inkscape.org/) -->

<svg
   width="128"
   height="128"
   viewBox="0 0 128 128"
   version="1.1"
   id="svg1"
   inkscape:version="1.4.2 (ebf0e940d0, 2025-05-08)"
   sodipodi:docname="icon.svg"
   inkscape:export-filename="icon.png"
   inkscape:export-xdpi="96"
   inkscape:export-ydpi="96"
   xmlns:inkscape="http://www.inkscape.org/namespaces/inkscape"
   xmlns:sodipodi="http://sodipodi.sourceforge.net/DTD/sodipodi-0.dtd"
   xmlns="http://www.w3.org/2000/svg"
   xmlns:svg="http://www.w3.org/2000/svg"
   xmlns:rdf="http://www.w3.org/1999/02/22-rdf-syntax-ns#"
   xmlns:cc="http://creativecommons.org/ns#">
  <sodipodi:namedview
     id="namedview1"
     pagecolor="#ffffff"
     bordercolor="#000000"
     borderopacity="0.25"
     inkscape:showpageshadow="2"
     inkscape:pageopacity="0.0"
     inkscape:pagecheckerboard="0"
     inkscape:deskcolor="#d1d1d1"
     inkscape:document-units="px"
     inkscape:zoom="4.7950679"
     inkscape:cx="77.788262"
     inkscape:cy="68.090798"
     inkscape:window-width="1536"
     inkscape:window-height="902"
     inkscape:window-x="0"
     inkscape:window-y="0"
     inkscape:window-maximized="1"
     inkscape:current-layer="layer1" />
  <defs
     id="defs1" />
  <g
     inkscape:label="Layer 1"
     inkscape:groupmode="layer"
     id="layer1">
    <path
       id="rect1"
       style="fill:#cccccc;stroke:#666666;stroke-width:8.73078;stroke-linecap:round;stroke-linejoin:round;paint-order:fill markers stroke;opacity:1;fill-opacity:0.1"
       d="m 32.107805,26.068453 c 6.646165,-9.03029 20.90395,-10.010395 32.116334,-10 11.146028,0.01033 25.309274,1.01703 31.907782,10 7.201909,9.804414 9.374019,29.06732 -0.417095,36.287286 -9.077632,6.693838 -20.629047,-9.822823 -31.907783,-9.791452 -11.079677,0.03082 -22.763563,16.55087 -31.699238,10 -9.811166,-7.192705 -7.210992,-26.698101 0,-36.495834 z"
       sodipodi:nodetypes="sssssss" />
    <g
       id="g6"
       transform="translate(-1.5215216)">
      <path
         id="path1"
         style="font-variation-settings:'opsz' 32;opacity:0.953035;fill:#4d4d4d;stroke-width:1.75913;stroke-linecap:round;stroke-linejoin:round;paint-order:fill markers stroke"
         d="M 39.28125,71.767578 A 18.769285,18.769285 0 0 0 20.513672,90.537109 18.769285,18.769285 0 0 0 39.28125,109.30664 18.769285,18.769285 0 0 0 58.050781,90.537109 18.769285,18.769285 0 0 0 39.28125,71.767578 Z m -7.496094,14.447266 a 3.5453095,3.7538571 0 0 1 3.544922,3.753906 3.5453095,3.7538571 0 0 1 -3.544922,3.753906 3.5453095,3.7538571 0 0 1 -3.544922,-3.753906 3.5453095,3.7538571 0 0 1 3.544922,-3.753906 z" />
      <path
         id="circle1"
         style="font-variation-settings:'opsz' 32;opacity:0.953035;fill:#4d4d4d;stroke-width:1.50503;stroke-linecap:round;stroke-linejoin:round;paint-order:fill markers stroke"
         d="M 39.28125,74.478516 A 16.058167,16.058167 0 0 0 23.224609,90.537109 16.058167,16.058167 0 0 0 39.28125,106.5957 16.058167,16.058167 0 0 0 55.339844,90.537109 16.058167,16.058167 0 0 0 39.28125,74.478516 Z m -7.496094,11.736328 a 3.5453095,3.7538571 0 0 1 3.544922,3.753906 3.5453095,3.7538571 0 0 1 -3.544922,3.753906 3.5453095,3.7538571 0 0 1 -3.544922,-3.753906 3.5453095,3.7538571 0 0 1 3.544922,-3.753906 z" />
      <path
         id="rect2"
         style="font-variation-settings:'opsz' 32;opacity:0.953035;fill:#4d4d4d;stroke-width:1.75913;stroke-linecap:round;stroke-linejoin:round;paint-order:fill markers stroke"
         d="m 72.929688,83.900391 c -2.256612,0.0085 -3.699817,1.960439 -4.353516,3.689453 H 55.994141 c -2.252939,0 -4.066407,1.813467 -4.066407,4.066406 v 2.503906 c 0,2.252939 1.813468,4.066406 4.066407,4.066406 h 35.361328 c 0.158732,2.105658 1.90703,3.753908 4.054687,3.753908 h 1.667969 c 4.588415,-0.73615 13.480275,-3.580007 13.451175,-8.968751 -0.0289,-5.350499 -8.52996,-8.23945 -13.451175,-8.757813 h -1.667969 c -2.003637,0 -3.659937,1.433713 -4.001953,3.335938 h -1.666015 c -0.551728,-1.14307 -1.453644,-2.234044 -2.748047,-2.228516 -1.300134,0.0056 -2.210527,1.076882 -2.742188,2.228516 h -1.71875 c -0.493356,-1.697358 -1.48396,-3.697867 -3.046875,-3.689453 -1.25429,0.0068 -2.146789,1.259685 -2.685547,2.646484 -0.801266,-1.378376 -2.072318,-2.653206 -3.871093,-2.646484 z" />
      <rect
         style="font-variation-settings:'opsz' 32;opacity:0.953035;fill:#4d4d4d;stroke-width:1.51666;stroke-linecap:round;stroke-linejoin:round;paint-order:fill markers stroke"
         id="rect6"
         width="46.506119"
         height="7.0906191"
         x="59.018978"
         y="89.343864"
         ry="3.5453095" />
    </g>
  </g>
  <metadata
     id="metadata1">
    <rdf:RDF>
      <cc:Work
         rdf:about="">
        <cc:license
           rdf:resource="http://creativecommons.org/licenses/by-sa/4.0/" />
      </cc:Work>
      <cc:License
         rdf:about="http://creativecommons.org/licenses/by-sa/4.0/">
        <cc:permits
           rdf:resource="http://creativecommons.org/ns#Reproduction" />
        <cc:permits
           rdf:resource="http://creativecommons.org/ns#Distribution" />
        <cc:requires
           rdf:resource="http://creativecommons.org/ns#Notice" />
        <cc:requires
           rdf:resource="http://creativecommons.org/ns#Attribution" />
        <cc:permits
           rdf:resource="http://creativecommons.org/ns#DerivativeWorks" />
        <cc:requires
           rdf:resource="http://creativecommons.org/ns#ShareAlike" />
      </cc:License>
    </rdf:RDF>
  </metadata>
</svg>
